<?xml version="1.0" encoding="utf-8"?>
<!-- Generator: Adobe Illustrator 21.1.0, SVG Export Plug-In . SVG Version: 6.00 Build 0)  -->
<svg version="1.1"
	 id="Warstwa_1" xmlns:cc="http://creativecommons.org/ns#" xmlns:dc="http://purl.org/dc/elements/1.1/" xmlns:inkscape="http://www.inkscape.org/namespaces/inkscape" xmlns:rdf="http://www.w3.org/1999/02/22-rdf-syntax-ns#" xmlns:sodipodi="http://sodipodi.sourceforge.net/DTD/sodipodi-0.dtd" xmlns:svg="http://www.w3.org/2000/svg"
	 xmlns="http://www.w3.org/2000/svg" xmlns:xlink="http://www.w3.org/1999/xlink" x="0px" y="0px" viewBox="0 0 1714 1741.8"
	 style="enable-background:new 0 0 1714 1741.8;" xml:space="preserve">
<style type="text/css">
	.st0{display:none;fill:none;stroke:#000000;stroke-width:40;stroke-miterlimit:10;}
</style>
<g transform="translate(0,-952.36218)">
	<path d="M856.9,1252c-7,1-18.4,3.9-23.8,8.3l-285.6,228.5c-17,13.6-18.4,38-6,53.6c12.5,15.6,38,18.4,53.6,6l223.7-179.1v987.2
		c0,21,17.1,38.1,38.1,38.1s38.1-17.1,38.1-38.1v-987.2l223.7,179.1c15.6,12.5,40.3,8.9,53.6-6c13.9-15.6,9.6-41.1-6-53.6
		l-285.6-228.5C872.9,1253.9,867,1252.5,856.9,1252z"/>
</g>
<circle class="st0" cx="857" cy="870.9" r="834.9"/>
</svg>
