<?xml version="1.0" encoding="utf-8"?>
<!-- Generator: Adobe Illustrator 21.1.0, SVG Export Plug-In . SVG Version: 6.00 Build 0)  -->
<svg version="1.1" id="Layer_1" xmlns="http://www.w3.org/2000/svg" xmlns:xlink="http://www.w3.org/1999/xlink" x="0px" y="0px"
	 viewBox="0 0 72 72" style="enable-background:new 0 0 72 72;" xml:space="preserve">
<style type="text/css">
	.st0{fill:#FDC600;}
	.st1{fill:none;stroke:#0053A1;stroke-width:0.7;}
	.st2{fill:#0053A1;}
</style>
<g>
	<g>
		<g>
			<path class="st0" d="M71.9,34.9L71.9,34.9l-0.1-0.1c-1.5-0.9-3.5-1.4-5.5-1.5c0-0.3-0.3-2.1-0.3-2.4c1.9-0.5,3.7-1.5,4.9-2.8
				L71,28l0-0.1c-0.1-0.7-0.4-1.7-0.6-2.3l0-0.1l-0.1,0c-1.7-0.5-3.8-0.5-5.7,0c-0.1-0.2-0.8-1.9-0.9-2.2c1.7-1,3.1-2.5,4-4l0-0.1
				l0-0.1c-0.3-0.6-0.8-1.5-1.2-2l-0.1-0.1l-0.1,0c-1.8,0-3.8,0.5-5.5,1.4c-0.2-0.2-1.3-1.7-1.4-1.9c1.4-1.4,2.4-3.2,2.8-4.9l0-0.1
				l-0.1-0.1c-0.4-0.5-1.1-1.2-1.7-1.7l-0.1-0.1l-0.1,0c-1.7,0.4-3.5,1.5-4.9,2.8c-0.2-0.2-1.7-1.3-1.9-1.5c0.9-1.7,1.5-3.6,1.5-5.3
				c0,0,0-0.2,0-0.2L55,5.5c-0.5-0.4-1.4-0.9-2-1.2l-0.1,0l-0.1,0c-1.6,0.9-3,2.3-4,4c-0.2-0.1-2-0.9-2.3-1C46.8,6.4,47,5.5,47,4.5
				c0-1-0.1-1.9-0.4-2.8l0-0.1l-0.1,0c-0.6-0.3-1.6-0.5-2.3-0.6l-0.1,0L44,1c-1.3,1.3-2.3,3-2.8,4.9c-0.3,0-2.1-0.3-2.4-0.3
				c0-1.9-0.5-3.9-1.5-5.5l0-0.1l-0.1,0c-0.7-0.1-1.7-0.1-2.3,0l-0.1,0l0,0.1c-0.9,1.5-1.4,3.5-1.5,5.5c-0.3,0-2.2,0.3-2.4,0.3
				c-0.5-1.9-1.6-3.7-2.9-4.9l-0.1-0.1l-0.1,0c-0.7,0.1-1.7,0.4-2.3,0.6l-0.1,0l0,0.1C25.2,2.6,25,3.5,25,4.5c0,1,0.1,1.9,0.4,2.9
				c-0.2,0.1-2.1,0.9-2.3,1c-1-1.7-2.5-3.1-4-4l-0.1,0l-0.1,0c-0.6,0.3-1.5,0.8-2,1.2l-0.1,0.1c0,0,0,0.2,0,0.3
				c0,1.7,0.5,3.7,1.5,5.3c-0.2,0.2-1.6,1.2-1.8,1.4c-1.4-1.4-3.2-2.4-4.9-2.8l-0.1,0l-0.1,0.1c-0.5,0.4-1.2,1.1-1.7,1.7l-0.1,0.1
				l0,0.1c0.4,1.7,1.5,3.5,2.8,4.9c-0.2,0.2-1.3,1.8-1.5,2c-1.7-1-3.7-1.5-5.5-1.5l-0.1,0L5.4,17c-0.4,0.5-0.9,1.4-1.2,2l0,0.1
				l0,0.1c0.9,1.6,2.3,3,4,4c-0.1,0.2-0.8,1.9-0.9,2.2c-1.9-0.5-4-0.5-5.7,0l-0.1,0l0,0.1c-0.3,0.6-0.5,1.5-0.6,2.3l0,0.1L1,28
				c1.3,1.3,3,2.3,4.9,2.8c0,0.3-0.3,2.1-0.3,2.4c-2,0-4,0.5-5.5,1.5l-0.1,0l0,0.1C0,35.1,0,35.6,0,36c0,0.4,0,0.8,0.1,1.2l0,0.1
				l0.1,0c1.5,0.9,3.5,1.4,5.5,1.5c0,0.3,0.3,2.2,0.3,2.4c-1.9,0.6-3.7,1.6-4.9,2.9L1,44.1l0,0.1c0.1,0.7,0.4,1.7,0.6,2.3l0,0.1
				l0.1,0c1.7,0.5,3.8,0.5,5.7,0c0.1,0.2,0.8,1.9,0.9,2.2c-1.7,1-3.1,2.4-4,4l0,0.1l0,0.1c0.3,0.6,0.8,1.5,1.2,2L5.6,55l0.1,0
				c1.8,0,3.8-0.5,5.5-1.5c0.2,0.2,1.3,1.7,1.5,1.9c-1.4,1.4-2.4,3.2-2.8,4.9l0,0.1l0.1,0.1c0.4,0.5,1.1,1.2,1.6,1.7l0.1,0.1l0.1,0
				c1.7-0.4,3.5-1.5,4.9-2.8c0.2,0.2,1.7,1.3,1.9,1.5c-0.9,1.7-1.5,3.6-1.5,5.4c0,0,0,0.2,0,0.2l0.1,0.1c0.5,0.4,1.4,0.9,2,1.2
				l0.1,0l0.1,0c1.6-0.9,3-2.3,4-4c0.2,0.1,1.9,0.8,2.1,0.9c-0.2,0.9-0.4,1.9-0.4,2.8c0,1,0.1,2,0.4,2.8l0,0.1l0.1,0
				c0.6,0.3,1.5,0.5,2.3,0.6l0.1,0l0.1-0.1c1.3-1.3,2.3-3,2.8-4.9c0.3,0,2.2,0.3,2.4,0.3c0,2,0.6,3.9,1.5,5.5l0.1,0.1l0.1,0
				c0.7,0.1,1.7,0.1,2.3,0l0.1,0l0.1-0.1c0.9-1.5,1.4-3.5,1.5-5.5c0.3,0,2-0.3,2.3-0.3c0.5,1.9,1.5,3.7,2.8,4.9l0.1,0.1l0.1,0
				c0.7-0.1,1.7-0.4,2.3-0.6l0.1,0l0-0.1c0.2-0.9,0.4-1.8,0.4-2.8c0-1-0.1-1.9-0.4-2.9c0.2-0.1,2-0.8,2.2-1c1,1.7,2.5,3.1,4,4l0.1,0
				l0.1,0c0.6-0.3,1.5-0.8,2-1.2l0.1-0.1c0,0,0-0.2,0-0.3c0-1.7-0.5-3.7-1.5-5.3c0.2-0.2,1.6-1.3,1.8-1.4c1.4,1.4,3.2,2.4,4.9,2.8
				l0.1,0l0.1-0.1c0.5-0.4,1.2-1.1,1.7-1.7l0.1-0.1l0-0.1c-0.4-1.7-1.5-3.5-2.8-4.9c0.2-0.2,1.3-1.7,1.5-1.9
				c1.7,0.9,3.7,1.5,5.5,1.5l0.1,0l0.1-0.1c0.4-0.5,0.9-1.4,1.2-2l0-0.1l0-0.1c-0.8-1.5-2.3-3-4-4c0.1-0.2,0.8-1.9,0.9-2.1
				c1.9,0.5,3.9,0.5,5.7,0l0.1,0l0-0.1c0.3-0.6,0.5-1.6,0.6-2.3l0-0.1L70.9,44c-1.3-1.3-3-2.3-4.9-2.8c0-0.3,0.3-2.1,0.3-2.3
				c2,0,4-0.6,5.5-1.5l0.1,0l0-0.1c0-0.3,0.1-0.8,0.1-1.2C72,35.6,72,35.2,71.9,34.9z M39,15.9c0.2-0.2,0.5-0.1,0.8-0.1
				c4.8,1.1,8.3,3.2,11.7,6.7c0.2,0.3,0.4,0.5,0.4,0.7c0,0,0,0.1,0,0.1c-0.1,0.3-0.4,0.5-0.8,0.7l-10,4.8c-0.4,0.2-0.8,0.2-1.1,0
				c-0.3-0.2-0.5-0.5-0.5-0.9l-0.8-11.1C38.7,16.4,38.8,16,39,15.9z M20.5,22.7L20.5,22.7c3.4-3.6,6.9-5.6,11.7-6.7
				c0.3-0.1,0.6-0.1,0.8,0.1c0.2,0.2,0.3,0.5,0.2,1L32.4,28c0,0.4-0.2,0.8-0.5,0.9c-0.3,0.2-0.7,0.2-1.1,0l-10-4.8
				c-0.3-0.2-0.7-0.3-0.8-0.7C20.1,23.2,20.2,23,20.5,22.7z M18.1,43.2c-0.4,0.3-0.8,0.4-1,0.3c-0.3-0.1-0.4-0.4-0.5-0.7
				c-1.4-4.7-1.4-8.7,0-13.5c0.1-0.4,0.3-0.6,0.5-0.7c0.3-0.1,0.7,0.1,1,0.3l9.2,6.2c0.4,0.2,0.6,0.6,0.6,0.9v0
				c0,0.3-0.2,0.7-0.5,0.9L18.1,43.2z M33.2,56.1c-0.2,0.2-0.5,0.1-0.8,0c-4.8-1.1-8.3-3.2-11.7-6.7c-0.2-0.3-0.4-0.5-0.4-0.7
				c0,0,0-0.1,0-0.1c0.1-0.3,0.4-0.5,0.8-0.7c0,0,10-4.8,10-4.8c0.4-0.2,0.8-0.2,1.1,0c0.3,0.2,0.5,0.5,0.5,0.9
				c0,0,0.8,11.1,0.8,11.1C33.4,55.6,33.3,56,33.2,56.1z M36.1,40.3c-2.4,0-4.3-1.9-4.3-4.3c0-1.9,1.2-3.5,3-4.1
				c0-0.2,0.1-1.2,0.1-1.2H37c0,0,0.1,0.9,0.1,1.1c1.9,0.5,3.2,2.2,3.2,4.1C40.3,38.4,38.4,40.3,36.1,40.3z M51.5,49.3
				c-3.4,3.6-6.9,5.6-11.7,6.7c-0.4,0.1-0.7,0.1-0.9-0.1c-0.3-0.2-0.2-0.6-0.2-1l0.8-11.1c0-0.4,0.2-0.8,0.5-0.9
				c0.3-0.2,0.7-0.2,1,0l10,4.8c0.5,0.2,0.7,0.5,0.8,0.7C52,48.8,51.8,49.1,51.5,49.3z M55.4,42.7L55.4,42.7
				c-0.1,0.4-0.3,0.6-0.5,0.7c-0.3,0.1-0.7-0.1-1-0.3l-9.2-6.2c-0.4-0.2-0.6-0.6-0.6-0.9c0-0.3,0.2-0.7,0.5-0.9l9.2-6.2
				c0.4-0.3,0.8-0.4,1-0.3c0.3,0.1,0.4,0.4,0.5,0.7C56.8,33.9,56.8,37.9,55.4,42.7z"/>
		</g>
	</g>
	<path class="st1" d="M36,29.2c3.7,0,6.8,3.1,6.8,6.8c0,3.7-3.1,6.8-6.8,6.8c-3.7,0-6.8-3.1-6.8-6.8C29.2,32.3,32.2,29.2,36,29.2z"
		/>
	<path class="st2" d="M62.6,46.5C58.4,57.1,48,64.6,36,64.6c-12,0-22.4-7.5-26.6-18.1c-0.2-0.6,0-1,0.5-1.1l4.2-1.5
		c0.2-0.1,0.8-0.1,1.1,0.5c3.3,8.3,11.5,14,20.7,14c9.3,0,17.3-5.7,20.7-13.9c0.3-0.8,0.9-0.7,1.1-0.7l4.2,1.5
		C62.5,45.5,62.8,45.9,62.6,46.5z"/>
	<path class="st2" d="M57.2,16.8c5.9,6.2,8.9,15.8,6.7,25.6c-0.1,0.5-0.5,0.8-1,0.7l-4.3-1.3c-0.4-0.1-0.7-0.5-0.7-1
		c1.5-7.9-0.4-14.3-5.1-19.5c-0.5-0.3-0.5-1-0.1-1.5l3.1-3.1C56.1,16.3,56.7,16.3,57.2,16.8z"/>
	<path class="st2" d="M49.7,18.2c-3.8-2.9-8.6-4.7-13.7-4.7c-5.1,0-9.9,1.7-13.7,4.7c-0.6,0.5-1,0.5-1.5,0.1l-3-3.3
		c-0.3-0.4-0.3-0.9,0.3-1.4C23.1,9.8,29.3,7.4,36,7.4c6.7,0,12.8,2.4,17.8,6.3c0.6,0.5,0.6,1,0.3,1.4l-3,3.3
		C50.7,18.8,50.3,18.7,49.7,18.2z"/>
	<path class="st2" d="M14.9,16.8C9,23.1,6,32.6,8.2,42.4c0.1,0.5,0.5,0.8,1.1,0.7l4.3-1.3c0.4-0.1,0.7-0.5,0.7-1
		c-1.5-7.9,0.4-14.3,5.1-19.5c0.5-0.3,0.5-1,0.1-1.5l-3.1-3.1C15.9,16.3,15.4,16.3,14.9,16.8z"/>
	<g>
		<path class="st0" d="M50.2,57.3c-0.6-1.1-2-1.4-3.1-0.8c-0.7,0.4-1.1,1.2-1.1,1.9c0,0.3,0.1,0.6,0.2,0.9c0,0.1,0.1,0.1,0.1,0.2
			c0.6,1.1,2,1.5,3.1,0.8c0.4-0.2,0.7-0.6,0.9-1c0.1-0.3,0.2-0.6,0.2-0.9C50.5,58,50.4,57.6,50.2,57.3z M48.9,59.7
			c-0.6,0.3-1.4,0.2-1.8-0.3c-0.1-0.1-0.1-0.1-0.2-0.2c-0.1-0.2-0.2-0.5-0.2-0.7c0-0.5,0.3-1,0.7-1.3c0.7-0.4,1.6-0.2,2,0.5
			c0.1,0.2,0.2,0.5,0.2,0.7c0,0.3-0.1,0.7-0.4,0.9C49.2,59.5,49.1,59.6,48.9,59.7z"/>
		<path class="st0" d="M11.7,49.6l3.9-2.3c0.2,0.3,0.3,0.5,0.5,0.9l-3.9,2.3C12.1,50.2,11.9,49.8,11.7,49.6z"/>
		<path class="st0" d="M44.8,62.4l-1.5-4.3c0.4-0.1,0.6-0.2,0.9-0.3l1.5,4.3C45.5,62.2,45.1,62.3,44.8,62.4z"/>
		<path class="st0" d="M17.3,56.6l2.5-2.8c-0.4-0.4-0.7-0.7-1.1-1l0.5-0.5c1,0.9,1.8,1.6,2.8,2.4l-0.5,0.6c-0.4-0.3-0.8-0.6-1.2-0.9
			L18,57.2L17.3,56.6z"/>
		<path class="st0" d="M40.8,63.4l-0.7-3.7c-0.5,0.1-1,0.1-1.4,0.2l-0.1-0.8c1.3-0.2,2.3-0.4,3.7-0.7l0.2,0.7
			c-0.5,0.1-0.9,0.3-1.4,0.4l0.8,3.6L40.8,63.4z"/>
		<path class="st0" d="M37.9,61.2l-0.8-1.9l0-0.1l-1,0l0,0.1l-0.6,1.9l-0.8,2.5c0.3,0,0.6,0,0.9,0l0.2-0.8l2-0.1l0.3,0.8
			c0.3,0,0.6-0.1,0.9-0.1L37.9,61.2z M36,62.2l0.3-0.9l0.3-0.9l0.4,0.9l0.4,0.9L36,62.2z"/>
		<path class="st0" d="M54.4,50.2L53.7,51l0.7,1.1l1.8,3c0.2-0.2,0.4-0.5,0.6-0.7l-0.4-0.7l1.2-1.5l0.8,0.3c0.1-0.1,0.2-0.2,0.2-0.3
			c0.1-0.1,0.2-0.3,0.3-0.4L54.4,50.2z M55.9,53l-0.5-0.8l-0.5-0.8l1.9,0.6l-0.2,0.2L55.9,53z"/>
		<polygon class="st0" points="59.6,50.7 55.6,48.5 56.1,47.8 59.4,49.6 60.5,47.6 61.2,48 		"/>
		<path class="st0" d="M29.7,63.1l1-4.5c0.3,0,0.5,0.1,0.8,0.2l1.3,3l0.3-2.8c0.3,0.1,0.6,0,0.9,0l-0.5,4.6c-0.4,0-0.7-0.1-1-0.1
			l-1.3-3l-0.6,2.7C30.3,63.3,30,63.2,29.7,63.1z"/>
		<path class="st0" d="M52.6,58.3l-2.7-3.7c0.2-0.2,0.4-0.3,0.7-0.5l3.2,0.9l-1.9-2c0.2-0.2,0.4-0.4,0.6-0.6l3.2,3.4
			c-0.2,0.3-0.5,0.5-0.7,0.7l-3.2-1l1.7,2.2C53.1,57.9,52.9,58.1,52.6,58.3z"/>
		<path class="st0" d="M12.8,51.5l3.8-2.6c0.2,0.2,0.3,0.4,0.5,0.7L16,52.7l2.1-1.8c0.2,0.2,0.4,0.4,0.6,0.6l-3.5,3
			c-0.3-0.2-0.4-0.5-0.6-0.8l1.1-3.1l-2.3,1.6C13.2,52,13,51.7,12.8,51.5z"/>
		<path class="st0" d="M28.6,58.1l-2-0.8l-0.8,1.8l-0.1,0.3l-0.9,2.1c0.3,0.2,0.6,0.2,0.9,0.3l0.7-1.8l0.9,0.4l0,2
			c0.3,0.1,0.7,0.2,1,0.3l-0.1-2.1c0.6-0.1,1.1-0.7,1.1-1.3c0-0.1,0-0.2,0-0.3C29.3,58.7,29.1,58.3,28.6,58.1z M27.8,59.8l-1-0.4
			l0,0l0.1-0.3l0.3-0.7l1.1,0.4c0.1,0.1,0.2,0.2,0.2,0.3c0,0.1,0,0.2,0,0.3C28.3,59.6,28.1,59.9,27.8,59.8z"/>
		<path class="st0" d="M20.4,59l2.6-3.8c0.8,0.5,1.7,1.1,2.6,1.6l-0.4,0.7c-0.7-0.3-1.3-0.7-1.9-1l-0.5,0.8c0.5,0.3,0.9,0.6,1.4,0.8
			l-0.4,0.6l-1.4-0.8l-0.7,1l2,1.2l-0.4,0.7C22.3,60.2,21.4,59.7,20.4,59z"/>
		<path class="st0" d="M31.1,11.3C31,10,29.9,9.1,28.6,9.2c-1.2,0.1-2.1,1.1-2.1,2.2c0,0.1,0,0.1,0,0.2c0.1,1.3,1.2,2.2,2.4,2.1
			c1.2-0.1,2.1-1.1,2.1-2.3C31.1,11.4,31.1,11.3,31.1,11.3z M29,12.9c-0.8,0.1-1.5-0.5-1.6-1.3c0,0,0-0.1,0-0.1
			c0-0.8,0.6-1.4,1.3-1.5c0.8-0.1,1.5,0.5,1.6,1.3c0,0,0,0.1,0,0.1C30.3,12.2,29.7,12.8,29,12.9z"/>
		<path class="st0" d="M39.6,10.3l-0.5-2l-1-0.1l-1,2.1l-1.1,2.3c0.4,0,0.5,0,0.9,0l0.4-0.8c0.6,0,1.2,0,1.9,0.2l0.3,0.8
			c0.3,0,0.6,0.1,0.9,0.1L39.6,10.3z M37.6,11.2l0.4-0.8l0.5-1l0.3,1l0.3,1C38.5,11.2,38,11.2,37.6,11.2z"/>
		<path class="st0" d="M33.4,12.8l-0.4-3.7l-1.4,0.2l-0.1-0.8c1.6-0.2,2.3-0.3,3.9-0.4L35.5,9L34,9.1l0.4,3.7L33.4,12.8z"/>
		<path class="st0" d="M48.2,12.8l-0.3-2c-0.4-0.2-0.6-0.3-1-0.4l0.5,2.9l-1,1.9l0.9,0.5l1-1.9l2.7-1.2c-0.3-0.2-0.6-0.3-0.9-0.5
			L48.2,12.8z"/>
		<path class="st0" d="M45.4,10.8c0-0.5-0.2-1-0.7-1.1C44,9.4,43.3,9.1,42.5,9L42,10.8l-0.7,2.5c0.4,0.1,0.6,0.2,1,0.3l0.4-1.6
			l0.9,0.3l0.2,1.8c0.4,0.1,0.6,0.2,0.9,0.4l-0.3-2C45.1,12.2,45.5,11.4,45.4,10.8z M43.9,11.5l-1-0.3l0.1-0.4l0.2-0.7
			c0.4,0.1,0.7,0.2,1,0.3c0.2,0.1,0.3,0.2,0.3,0.4C44.5,11.1,44.2,11.6,43.9,11.5z"/>
		<path class="st0" d="M25.8,15c0.4-0.2,0.6-0.3,0.9-0.4l-1.6-1.2c0.1-0.2,0.1-0.3,0.2-0.5c0.1-1-1.1-2-1.9-1.6
			c-0.7,0.4-1.4,0.7-2.1,1.1l0.3,0.5l1.9,3.4c0.4-0.2,0.6-0.4,0.9-0.6l-0.9-1.4l0.8-0.4L25.8,15z M24.1,13.2l-0.9,0.5l-0.5-0.8
			l-0.1-0.2c0.4-0.2,0.6-0.4,1-0.5c0.5-0.3,0.8,0.3,0.7,0.7C24.2,13,24.2,13.1,24.1,13.2z"/>
	</g>
</g>
</svg>
